<svg width="300" height="300" viewBox="0 0 300 300" fill="none" xmlns="http://www.w3.org/2000/svg">
<path fill-rule="evenodd" clip-rule="evenodd" d="M299.047 167H212.754C205.281 194.654 180.017 215 150 215C119.983 215 94.7188 194.654 87.2456 167H0.952698C9.3947 241.839 72.9052 300 150 300C227.095 300 290.605 241.839 299.047 167ZM299.157 134H213.016C205.888 105.838 180.377 85 150 85C119.623 85 94.1124 105.838 86.984 134H0.843292C8.82979 58.6801 72.5621 0 150 0C227.438 0 291.17 58.6801 299.157 134Z" fill="black"/>
<circle cx="150.5" cy="150.5" r="41.5" fill="black"/>
</svg>
